HIERARCHY
ROOT Pelvis
{
	OFFSET 0.000000 0.000000 0.000000
	CHANNELS 6 Xposition Yposition Zposition Xrotation Yrotation Zrotation
	JOINT LeftUpLeg_virtual
	{
		OFFSET 0.000000 0.000000 0.000000
		CHANNELS 3 Xrotation Yrotation Zrotation
		JOINT LeftUpLeg
		{
			OFFSET 18.735201 -5.666702 -4.541200
			CHANNELS 3 Xrotation Yrotation Zrotation
			JOINT LeftLeg
			{
				OFFSET -0.021200 -31.938179 0.493100
				CHANNELS 3 Xrotation Yrotation Zrotation
				JOINT LeftFoot
				{
					OFFSET 0.021200 -31.938179 -4.336299
					CHANNELS 3 Xrotation Yrotation Zrotation
					JOINT LeftToeBase
					{
						OFFSET 0.943001 -26.722000 15.023500
						CHANNELS 3 Xrotation Yrotation Zrotation
						End Site
						{
							OFFSET 0 0 0
						}
					}
				}
			}
		}
	}
	JOINT RightUpLeg_virtual
	{
		OFFSET 0.000000 0.000000 0.000000
		CHANNELS 3 Xrotation Yrotation Zrotation
		JOINT RightUpLeg
		{
			OFFSET -18.735201 -5.666702 -4.541200
			CHANNELS 3 Xrotation Yrotation Zrotation
			JOINT RightLeg
			{
				OFFSET 0.018946 -31.938133 0.493100
				CHANNELS 3 Xrotation Yrotation Zrotation
				JOINT RightFoot
				{
					OFFSET -0.018946 -31.938126 -4.336299
					CHANNELS 3 Xrotation Yrotation Zrotation
					JOINT RightToeBase
					{
						OFFSET -0.943001 -26.722004 15.023500
						CHANNELS 3 Xrotation Yrotation Zrotation
						End Site
						{
							OFFSET 0 0 0
						}
					}
				}
			}
		}
	}
	JOINT Hips_virtual
	{
		OFFSET 0.000000 0.000000 0.000000
		CHANNELS 3 Xrotation Yrotation Zrotation
		JOINT Hips
		{
			OFFSET -0.000000 -0.000000 -0.000000
			CHANNELS 3 Xrotation Yrotation Zrotation
			JOINT Spine
			{
				OFFSET 0.000000 10.199997 -0.299500
				CHANNELS 3 Xrotation Yrotation Zrotation
				JOINT Spine1
				{
					OFFSET 0.000000 11.900002 -1.516600
					CHANNELS 3 Xrotation Yrotation Zrotation
					JOINT Spine2
					{
						OFFSET 0.000000 13.600006 -2.842500
						CHANNELS 3 Xrotation Yrotation Zrotation
						JOINT Neck_virtual
						{
							OFFSET 0.000000 0.000000 0.000000
							CHANNELS 3 Xrotation Yrotation Zrotation
							JOINT Neck
							{
								OFFSET 0.000000 9.624100 -2.890100
								CHANNELS 3 Xrotation Yrotation Zrotation
								JOINT Head
								{
									OFFSET 0.000000 14.068802 -1.351900
									CHANNELS 3 Xrotation Yrotation Zrotation
									End Site
									{
										OFFSET 0 0 0
									}
								}
							}
						}
						JOINT LeftShoulder_virtual
						{
							OFFSET 0.000000 0.000000 0.000000
							CHANNELS 3 Xrotation Yrotation Zrotation
							JOINT LeftShoulder
							{
								OFFSET 15.263000 10.923401 -0.547700
								CHANNELS 3 Xrotation Yrotation Zrotation
								JOINT LeftArm
								{
									OFFSET 25.438599 -2.830597 -13.032500
									CHANNELS 3 Xrotation Yrotation Zrotation
									JOINT LeftForeArm
									{
										OFFSET 29.960503 0.000000 0.000000
										CHANNELS 3 Xrotation Yrotation Zrotation
										JOINT LeftHand
										{
											OFFSET 27.849251 0.000000 0.000000
											CHANNELS 3 Xrotation Yrotation Zrotation
											End Site
											{
												OFFSET 0 0 0
											}
										}
									}
								}
							}
						}
						JOINT RightShoulder_virtual
						{
							OFFSET 0.000000 0.000000 0.000000
							CHANNELS 3 Xrotation Yrotation Zrotation
							JOINT RightShoulder
							{
								OFFSET -15.263000 10.923401 -0.547700
								CHANNELS 3 Xrotation Yrotation Zrotation
								JOINT RightArm
								{
									OFFSET -25.438599 -2.830597 -13.032500
									CHANNELS 3 Xrotation Yrotation Zrotation
									JOINT RightForeArm
									{
										OFFSET -29.960503 0.000000 0.000000
										CHANNELS 3 Xrotation Yrotation Zrotation
										JOINT RightHand
										{
											OFFSET -27.849251 0.000000 0.000000
											CHANNELS 3 Xrotation Yrotation Zrotation
											End Site
											{
												OFFSET 0 0 0
											}
										}
									}
								}
							}
						}
					}
				}
			}
		}
	}
}
MOTION
Frames: 11
Frame Time: 0.03333333
-3.290136 87.270874 3.588161 0.000000 0.000000 0.000000 -2.250831 -45.517726 -0.128156 -31.415503 3.435503 14.590174 33.377642 -18.849113 -0.120015 1.133341 2.479392 -11.902164 0.000000 0.000000 0.000000 -3.786675 -43.750111 -0.773659 0.336285 -16.371852 -16.935099 31.655451 -9.518163 0.125515 -25.713103 -4.351026 21.739399 0.000000 0.000000 0.000000 -3.979891 -43.902912 -0.656710 -1.020764 0.102403 -0.680690 6.038101 5.486042 -1.709946 11.377867 9.269434 -3.473503 0.000000 0.000000 0.000000 11.804713 8.769650 -3.770081 -0.755185 0.831605 0.227951 0.000000 0.000000 0.000000 12.031671 8.792018 -3.838705 1.028056 -1.688942 -6.223289 -15.836246 1.237687 -64.597798 11.614184 -42.370344 6.413517 0.000000 0.000000 0.000000 12.154229 8.972207 -3.617836 1.505499 9.733718 9.318815 -0.338082 -21.171758 60.979772 -1.606639 44.756385 5.878177 0.000000 0.000000 0.000000 
-3.314542 87.337814 3.334366 0.000000 0.000000 0.000000 -2.077085 -45.074488 0.002676 -31.104401 2.861104 14.042762 32.462246 -18.537442 0.147864 0.305348 2.414565 -12.211962 0.000000 0.000000 0.000000 -3.951073 -43.333623 -0.842186 0.543291 -15.855738 -16.897340 30.699313 -9.509988 0.029120 -25.642029 -4.019577 22.193928 0.000000 0.000000 0.000000 -4.019468 -43.559094 -0.687900 -1.071066 0.044229 -0.875709 5.907288 5.311331 -1.781885 11.366203 9.142280 -3.465985 0.000000 0.000000 0.000000 11.795946 8.645446 -3.749062 -0.670260 0.818353 0.237909 0.000000 0.000000 0.000000 11.970550 8.670978 -3.857644 1.027889 -1.845085 -6.252651 -15.717674 1.406707 -64.346044 11.557343 -42.805267 6.263053 0.000000 0.000000 0.000000 12.043618 8.853436 -3.588310 1.527196 9.608970 9.123273 -0.004520 -21.676372 60.815827 -1.277423 44.708735 5.729038 0.000000 0.000000 0.000000 
-3.241933 87.487747 3.063732 0.000000 0.000000 0.000000 -1.729580 -44.420729 0.187418 -31.656933 2.665684 13.452321 31.930120 -17.665919 0.515712 -0.241904 1.801610 -13.672422 0.000000 0.000000 0.000000 -3.785656 -42.814648 -0.832479 0.538107 -14.901029 -16.921859 30.320992 -9.874206 0.038740 -25.870351 -3.893043 23.088893 0.000000 0.000000 0.000000 -3.704347 -43.129626 -0.603140 -1.092358 0.043582 -1.042852 5.773139 5.018654 -1.725817 11.296193 8.855720 -3.477938 0.000000 0.000000 0.000000 11.644736 8.373602 -3.713272 -0.723675 0.806766 0.235785 0.000000 0.000000 0.000000 11.781016 8.389638 -3.897088 1.050125 -2.076190 -6.334412 -15.928933 1.624507 -63.973164 11.661279 -42.898256 6.158887 0.000000 0.000000 0.000000 11.839733 8.577462 -3.584422 1.529744 9.447890 9.297691 0.525018 -22.173362 60.204682 -0.670181 44.800331 5.504696 0.000000 0.000000 0.000000 
-3.119853 87.663666 2.826786 0.000000 0.000000 0.000000 -1.208826 -43.587764 0.421950 -33.151559 2.896500 12.888482 32.162842 -16.026136 1.008638 -0.084051 1.077564 -15.267259 0.000000 0.000000 0.000000 -3.232714 -42.191591 -0.669621 0.392422 -13.770791 -16.961887 30.509277 -10.731374 0.159726 -26.400122 -4.130263 24.039797 0.000000 0.000000 0.000000 -3.010774 -42.600450 -0.349610 -1.100988 0.113041 -1.060181 5.665268 4.655611 -1.585487 11.187888 8.467581 -3.517146 0.000000 0.000000 0.000000 11.413085 8.010629 -3.684511 -0.922003 0.799053 0.215523 0.000000 0.000000 0.000000 11.524179 8.000548 -3.951829 1.090020 -2.362810 -6.390883 -16.337317 1.586918 -63.420847 11.914979 -42.554264 6.080270 0.000000 0.000000 0.000000 11.618788 8.200526 -3.607492 1.491347 9.310928 9.721531 1.027320 -22.422258 59.426498 0.211869 44.704975 5.123517 0.000000 0.000000 0.000000 
-2.995671 87.748726 2.608242 0.000000 0.000000 0.000000 -0.438126 -42.471728 0.725073 -35.269526 3.402158 12.262848 33.219066 -13.611800 1.741952 0.443367 0.570191 -16.137041 0.000000 0.000000 0.000000 -2.280347 -41.222425 -0.293642 0.407797 -12.656586 -16.794752 30.951736 -12.149535 0.316232 -27.197214 -4.736974 24.664785 0.000000 0.000000 0.000000 -1.912660 -41.842985 0.133223 -1.086764 0.221865 -0.933930 5.587847 4.271626 -1.435539 11.075302 8.021298 -3.569292 0.000000 0.000000 0.000000 11.173950 7.611734 -3.677084 -1.258766 0.802487 0.154632 0.000000 0.000000 0.000000 11.283585 7.573730 -4.030358 1.147290 -2.703816 -6.359273 -16.920552 1.101122 -62.488048 12.330344 -41.731824 6.019516 0.000000 0.000000 0.000000 11.440295 7.787568 -3.651535 1.438064 9.178918 10.159065 1.396857 -22.128109 58.767590 1.299434 44.167429 4.561092 0.000000 0.000000 0.000000 
-2.898408 87.688179 2.527706 0.000000 0.000000 0.000000 0.555995 -40.929574 1.112206 -37.520930 4.182746 11.516119 34.669928 -10.552213 2.605988 1.057597 0.399947 -15.818177 0.000000 0.000000 0.000000 -0.941062 -39.769678 0.324186 0.855421 -11.770815 -16.211982 31.024901 -14.114232 0.340389 -27.992188 -5.624754 24.869151 0.000000 0.000000 0.000000 -0.401350 -40.628588 0.823118 -1.035078 0.282037 -0.861003 5.520188 3.921300 -1.352598 10.971106 7.578890 -3.626933 0.000000 0.000000 0.000000 11.004674 7.228169 -3.699008 -1.709859 0.821577 0.043400 0.000000 0.000000 0.000000 11.128425 7.172476 -4.118923 1.211706 -3.050857 -6.232827 -17.744019 0.037879 -61.081671 12.911555 -40.623930 5.991119 0.000000 0.000000 0.000000 11.317718 7.395573 -3.708993 1.353624 9.045858 10.438930 1.418287 -21.083805 58.471480 2.478036 43.283903 3.852882 0.000000 0.000000 0.000000 
-2.772718 87.508942 2.711437 0.000000 0.000000 0.000000 1.756743 -38.931231 1.529105 -39.743156 5.512836 10.714209 36.222665 -6.759057 3.343949 1.370752 0.834031 -13.887550 0.000000 0.000000 0.000000 0.713257 -37.832906 1.051412 1.777868 -11.305294 -15.100741 30.266515 -16.506802 0.105868 -28.565567 -6.566663 24.659379 0.000000 0.000000 0.000000 1.367365 -38.924353 1.582876 -0.929359 0.378831 -0.800875 5.415727 3.630270 -1.377070 10.871525 7.173297 -3.662554 0.000000 0.000000 0.000000 10.890796 6.885242 -3.715591 -2.235641 0.860876 -0.130518 0.000000 0.000000 0.000000 11.052586 6.833298 -4.174697 1.262325 -3.398590 -6.063046 -18.945855 -1.704793 -59.222590 13.604544 -39.493090 6.012388 0.000000 0.000000 0.000000 11.244410 7.055500 -3.750176 1.223111 9.025342 10.523529 0.954189 -19.326329 58.506301 3.666306 42.435412 3.026727 0.000000 0.000000 0.000000 
-2.603207 87.256119 3.345451 0.000000 0.000000 0.000000 3.120244 -36.572152 1.892692 -41.991651 7.440112 9.896994 37.968024 -2.385264 3.757708 1.144639 1.963730 -10.277370 0.000000 0.000000 0.000000 2.606391 -35.496186 1.739694 2.838816 -11.459338 -13.610947 28.888319 -19.259030 -0.427171 -28.385356 -7.265376 23.948356 0.000000 0.000000 0.000000 3.287192 -36.782946 2.284371 -0.824378 0.562488 -0.800848 5.237064 3.424459 -1.490260 10.757240 6.806353 -3.630835 0.000000 0.000000 0.000000 10.790687 6.588867 -3.687556 -2.793463 0.921165 -0.368000 0.000000 0.000000 0.000000 10.995399 6.565512 -4.146781 1.283702 -3.782179 -5.959298 -20.591460 -4.216220 -57.097226 14.427045 -38.676124 6.152002 0.000000 0.000000 0.000000 11.172662 6.767478 -3.734535 1.053335 9.118232 10.401471 -0.240330 -16.977251 58.855248 4.832250 42.004140 2.102825 0.000000 0.000000 0.000000 
-2.420349 86.999130 4.591541 0.000000 0.000000 0.000000 4.580021 -33.892720 2.131954 -44.341906 9.667638 8.975606 40.197367 2.139424 3.797741 0.324019 3.632447 -5.194033 0.000000 0.000000 0.000000 4.552012 -32.897681 2.180095 3.601736 -12.160004 -11.930974 27.410266 -22.287848 -1.218981 -27.223456 -7.655687 22.441493 0.000000 0.000000 0.000000 5.206841 -34.296900 2.776627 -0.753360 0.681737 -0.847448 5.008077 3.303725 -1.652232 10.617424 6.499436 -3.493414 0.000000 0.000000 0.000000 10.656147 6.338440 -3.574855 -3.356243 0.987508 -0.654363 0.000000 0.000000 0.000000 10.898312 6.363490 -4.003859 1.275971 -4.237088 -6.038607 -22.687940 -7.528054 -55.003636 15.319158 -38.312853 6.389548 0.000000 0.000000 0.000000 11.065759 6.527447 -3.623248 0.833311 9.398537 10.061777 -2.415125 -14.088631 59.509649 6.029284 42.146317 0.988140 0.000000 0.000000 0.000000 
-2.177543 86.778091 6.386230 0.000000 0.000000 0.000000 6.104793 -31.018321 2.182036 -46.662442 11.695641 7.771481 42.914024 6.209125 3.504341 -1.576298 5.298070 0.572023 0.000000 0.000000 0.000000 6.422817 -30.120079 2.289083 3.528549 -13.068129 -10.260535 26.814956 -25.371496 -2.141770 -25.346919 -7.734452 19.939243 0.000000 0.000000 0.000000 7.027499 -31.620958 2.960553 -0.746787 0.729304 -0.896119 4.750555 3.224688 -1.786301 10.416357 6.229358 -3.237386 0.000000 0.000000 0.000000 10.416854 6.113405 -3.348506 -3.902798 1.045137 -0.964001 0.000000 0.000000 0.000000 10.703799 6.197035 -3.738106 1.246181 -4.770667 -6.377224 -25.308438 -11.446022 -53.120061 16.224508 -38.311586 6.706775 0.000000 0.000000 0.000000 10.884933 6.322419 -3.388293 0.599117 9.906956 9.381048 -5.882486 -10.607039 60.370335 7.335744 42.893171 -0.400802 0.000000 0.000000 0.000000 
-1.871897 86.611626 8.658237 0.000000 0.000000 0.000000 7.691047 -28.190745 2.087090 -48.565999 12.870082 6.041880 45.636968 8.922326 3.086899 -4.721791 5.911882 5.642576 0.000000 0.000000 0.000000 8.217288 -27.306646 2.158220 2.307468 -13.768750 -8.814298 27.653691 -28.300962 -3.042889 -23.100817 -7.568697 16.608836 0.000000 0.000000 0.000000 8.711425 -28.842458 2.851110 -0.726932 0.722453 -0.935633 4.501763 3.153910 -1.843955 10.128300 5.986478 -2.875304 0.000000 0.000000 0.000000 10.054587 5.898273 -3.008200 -4.404217 1.088761 -1.271610 0.000000 0.000000 0.000000 10.391146 6.033168 -3.366980 1.196558 -5.362476 -6.925636 -28.427188 -15.752909 -51.584939 17.037086 -38.549304 7.009554 0.000000 0.000000 0.000000 10.584755 6.133561 -3.040513 0.386633 10.659405 8.314743 -10.683160 -6.510857 61.306282 8.838979 44.050438 -2.130460 0.000000 0.000000 0.000000 
